<svg id="Layer_7" data-name="Layer 7" xmlns="http://www.w3.org/2000/svg" viewBox="0 0 36 37.68"><defs><style>.cls-1{fill:none;}.cls-1,.cls-3,.cls-4{stroke:#000;stroke-miterlimit:10;}.cls-2{fill:#4d4d4d;}.cls-3{stroke-width:0.25px;}</style></defs><title>CUparkit_Parking</title><path class="cls-1" d="M14.53,13.05a5.77,5.77,0,0,1,3.1-2.86,5.53,5.53,0,0,1,2.86-.63h0a5,5,0,0,1,.9.11,6.13,6.13,0,0,1,1,.26,9.78,9.78,0,0,1,4.22,3.19l.06.09a8.57,8.57,0,0,1,1.48,4.41,1.92,1.92,0,0,1,0,.24" transform="translate(-6 -3.32)"/><path class="cls-1" d="M26.44,18.22c.51.08.85-.73,1.32-.52l.4.17" transform="translate(-6 -3.32)"/><path class="cls-2" d="M25.28,13.35Z" transform="translate(-6 -3.32)"/><path class="cls-1" d="M28.16,17.87l8.61,3.73a4.18,4.18,0,0,1,2.17,5.5l0,.06" transform="translate(-6 -3.32)"/><path class="cls-1" d="M26.44,18.22l-1.37-.6L20,15.43,19.1,15l-4.56-2L12.2,12a1.47,1.47,0,0,0-1.94.76L9,15.61a1.48,1.48,0,0,0,.77,1.93l1.91.83a1.58,1.58,0,0,1,.15-.48,3,3,0,1,1,5.5,2.39,2.11,2.11,0,0,1-.24.44l2.31,1" transform="translate(-6 -3.32)"/><path class="cls-1" d="M26.42,24.78l1.81.75a3,3,0,0,1,.15-.48,3,3,0,1,1,5.51,2.39,2.09,2.09,0,0,1-.25.44l1.65.71" transform="translate(-6 -3.32)"/><path class="cls-1" d="M38.92,27.16l-.74,1.69a.92.92,0,0,1-1.2.48l-1.69-.74" transform="translate(-6 -3.32)"/><polygon class="cls-3" points="14.03 12.12 13.11 11.71 15.42 6.36 15.49 6.21 16.41 6.61 16.4 6.63 14.03 12.12"/><path class="cls-1" d="M17.37,20.28a2.11,2.11,0,0,1-.24.44,3,3,0,0,1-5.41-2.35,1.58,1.58,0,0,1,.15-.48,3,3,0,1,1,5.5,2.39Z" transform="translate(-6 -3.32)"/><path class="cls-1" d="M33.89,27.44a2.09,2.09,0,0,1-.25.44,3,3,0,0,1-5.41-2.35,3,3,0,0,1,.15-.48,3,3,0,1,1,5.51,2.39Z" transform="translate(-6 -3.32)"/><rect x="24.98" y="17.52" width="2" height="1" rx="0.5" transform="translate(3.31 -12.17) rotate(23.45)"/><path class="cls-1" d="M8.77,23.51" transform="translate(-6 -3.32)"/><path class="cls-1" d="M21.32,18.72" transform="translate(-6 -3.32)"/><path class="cls-1" d="M13.23,26.57" transform="translate(-6 -3.32)"/><path class="cls-1" d="M8.77,23.51" transform="translate(-6 -3.32)"/><rect class="cls-4" x="0.5" y="33.18" width="35" height="4"/><polyline class="cls-1" points="16.63 7.2 16.56 6.69 15.7 0.7 19.15 1.73 24.73 15.67"/><polyline class="cls-1" points="23.33 18.73 11.5 27.18 6.5 27.18 16.36 15.68"/><rect x="25.92" y="24.28" width="1" height="1" rx="0.21" transform="translate(4.56 -11.1) rotate(20.87)"/><rect x="18.94" y="21.23" width="1" height="1" rx="0.5" transform="matrix(0.68, 0.73, -0.73, 0.68, 16, -10.63)"/><polygon points="14.15 18.44 13.46 17.71 13.46 17.71 14.15 18.44 14.15 18.44"/></svg>