<svg id="Layer_7" data-name="Layer 7" xmlns="http://www.w3.org/2000/svg" viewBox="0 0 36 33.63"><defs><style>.cls-1{fill:none;}.cls-1,.cls-3,.cls-4{stroke:#000;stroke-miterlimit:10;}.cls-2{fill:#4d4d4d;}.cls-3{stroke-width:0.25px;}</style></defs><title>CUparkit_Leaving</title><path class="cls-1" d="M11.81,21.14a5.75,5.75,0,0,1,0-4.21,5.66,5.66,0,0,1,1.5-2.52l0,0a5.38,5.38,0,0,1,.7-.58,6.42,6.42,0,0,1,.86-.53,9.51,9.51,0,0,1,5.21-.89h.11a8.39,8.39,0,0,1,4.22,1.94.67.67,0,0,1,.18.16" transform="translate(-6 -7.37)"/><path class="cls-1" d="M23.73,16c.41-.31.05-1.12.52-1.32l.4-.17" transform="translate(-6 -7.37)"/><path class="cls-2" d="M19.38,13.51" transform="translate(-6 -7.37)"/><path class="cls-1" d="M24.65,14.5l8.61-3.73A4.18,4.18,0,0,1,38.76,13l0,.05" transform="translate(-6 -7.37)"/><path class="cls-1" d="M23.73,16l-1.38.59L17.3,18.77l-.92.39-4.57,2-2.34,1a1.48,1.48,0,0,0-.76,1.94L9.92,26.9a1.48,1.48,0,0,0,1.94.76l1.91-.83a2.3,2.3,0,0,1-.25-.43A3,3,0,1,1,19,24a2.21,2.21,0,0,1,.15.48l2.32-1" transform="translate(-6 -7.37)"/><path class="cls-1" d="M28.5,20.5l1.79-.81a2.38,2.38,0,0,1-.25-.44,3,3,0,1,1,5.51-2.39,3,3,0,0,1,.15.48l1.64-.71" transform="translate(-6 -7.37)"/><path class="cls-1" d="M38.78,13l.73,1.7A.91.91,0,0,1,39,15.9l-1.7.73" transform="translate(-6 -7.37)"/><polygon class="cls-3" points="11.31 11.4 10.38 11.79 8.06 6.44 8 6.29 8.92 5.89 8.93 5.91 11.31 11.4"/><path class="cls-1" d="M19,24a2.21,2.21,0,0,1,.15.48,3,3,0,0,1-5.41,2.34,2.3,2.3,0,0,1-.25-.43A3,3,0,1,1,19,24Z" transform="translate(-6 -7.37)"/><path class="cls-1" d="M35.55,16.86a3,3,0,0,1,.15.48,3,3,0,0,1-5.41,2.35,2.76,2.76,0,0,1-.25-.44,3,3,0,1,1,5.51-2.39Z" transform="translate(-6 -7.37)"/><rect x="22.27" y="15.69" width="2" height="1" rx="0.5" transform="translate(-10.51 3.21) rotate(-23.4)"/><path class="cls-1" d="M15.5,32.5" transform="translate(-6 -7.37)"/><path class="cls-1" d="M20.59,20.07" transform="translate(-6 -7.37)"/><path class="cls-1" d="M20.79,31.34" transform="translate(-6 -7.37)"/><path class="cls-1" d="M15.5,32.5" transform="translate(-6 -7.37)"/><rect class="cls-4" x="0.5" y="29.13" width="35" height="4"/><polyline class="cls-1" points="9.5 6.13 9.08 5.84 4.12 2.37 7.23 0.55 21.22 6.02"/><polyline class="cls-1" points="22.5 9.13 20.5 23.13 16.5 26.13 15.5 12.13"/><rect x="28" y="20" width="1" height="1" rx="0.21" transform="translate(-12.1 7.19) rotate(-25.98)"/><rect x="15" y="15.63" width="1" height="1" rx="0.5"/><polygon points="16 15.63 15 15.63 15 15.63 16 15.63 16 15.63"/></svg>