<svg id="Car" xmlns="http://www.w3.org/2000/svg" viewBox="0 0 38.75 24.13"><defs><style>.cls-1,.cls-3{fill:none;}.cls-2,.cls-3,.cls-4{stroke:#000;stroke-miterlimit:10;}.cls-2{stroke-width:0.25px;}.cls-3{stroke-width:0.75px;}.cls-4{fill:#fff;}</style></defs><title>CUparkit_Logo_Monochrome</title><path class="cls-1" d="M12.74,29a11.67,11.67,0,0,1-.54-1.19" transform="translate(-4.63 -11.88)"/><path class="cls-1" d="M11.5,24c0-6.35,5.6-11.5,12.5-11.5S36.5,17.65,36.5,24" transform="translate(-4.63 -11.88)"/><path class="cls-1" d="M36.45,25a10.36,10.36,0,0,1-.65,2.77" transform="translate(-4.63 -11.88)"/><g id="Tires"><path d="M9.5,32H12v2.68A1.32,1.32,0,0,1,10.68,36H9.32A1.32,1.32,0,0,1,8,34.68V32Z" transform="translate(-4.63 -11.88)"/><path d="M10.09,27a.61.61,0,0,0,.05.12,1.28,1.28,0,0,0,.11.2,1.33,1.33,0,0,0,.42.43l.25.13a1,1,0,0,0,.25.08,1.19,1.19,0,0,0,.33,0l.24,0Z" transform="translate(-4.63 -11.88)"/><path d="M40,32v2.68A1.32,1.32,0,0,1,38.68,36H37.32A1.32,1.32,0,0,1,36,34.68V32h4Z" transform="translate(-4.63 -11.88)"/></g><path class="cls-1" d="M12.06,25.11c0,.11,0,.22,0,.33s0,0,0,.07l.06.35c0,.2.08.4.13.6s.08.32.13.48.12.37.19.55.09.24.14.36a2.75,2.75,0,0,0,.15.36c.08.19.17.37.27.56s.09.15.14.23H34.68" transform="translate(-4.63 -11.88)"/><path class="cls-1" d="M35.39,27.46c.07-.18.13-.37.19-.56a3.6,3.6,0,0,0,.12-.44,7.78,7.78,0,0,0,.22-1.17.5.5,0,0,0,0-.12" transform="translate(-4.63 -11.88)"/><path class="cls-1" d="M12,24c0-6.07,5.38-11,12-11s12,4.93,12,11" transform="translate(-4.63 -11.88)"/><line class="cls-1" x1="29.05" y1="20.13" x2="28.34" y2="20.13"/><path class="cls-2" d="M36,24c0-6.07-5.38-11-12-11S12,17.93,12,24H11c0-6.62,5.83-12,13-12s13,5.38,13,12Z" transform="translate(-4.63 -11.88)"/><g id="Body"><line class="cls-3" x1="7.38" y1="17.13" x2="3.38" y2="17.13"/><path class="cls-3" d="M6.05,29a2.29,2.29,0,0,1,0-.52v-1A3.5,3.5,0,0,1,9.5,24h29A3.5,3.5,0,0,1,42,27.5v1A2.29,2.29,0,0,1,42,29" transform="translate(-4.63 -11.88)"/><polyline class="cls-3" points="7.38 20.13 10.4 20.13 28.34 20.13 29.05 20.13 31.38 20.13 33.88 20.13"/></g><path class="cls-3" d="M38.06,26.53A1.5,1.5,0,0,1,38,27a1.48,1.48,0,0,1-1.42,1,1.55,1.55,0,0,1-.31,0,1.06,1.06,0,0,1-.19-.06.91.91,0,0,1-.26-.13,1.15,1.15,0,0,1-.41-.35,1.53,1.53,0,0,1-.33-1,1.44,1.44,0,0,1,.88-1.33,1.28,1.28,0,0,1,.51-.13h.11a1.21,1.21,0,0,1,.38.06A1.47,1.47,0,0,1,38.06,26.53Z" transform="translate(-4.63 -11.88)"/><g id="Monochrome_Bumper" data-name="Monochrome Bumper"><path class="cls-4" d="M46.51,29.49" transform="translate(-4.63 -11.88)"/><path class="cls-3" d="M9.5,32H6.25A1.25,1.25,0,0,1,5,30.75v-.5a1.24,1.24,0,0,1,1-1.23l.2,0H8" transform="translate(-4.63 -11.88)"/><path class="cls-3" d="M12,29H41.75l.2,0a1.24,1.24,0,0,1,1,1.23v.5A1.25,1.25,0,0,1,41.75,32H8" transform="translate(-4.63 -11.88)"/></g><circle class="cls-3" cx="6.88" cy="14.63" r="1.5"/><circle class="cls-3" cx="31.88" cy="14.63" r="1.5"/></svg>