<svg id="Car" xmlns="http://www.w3.org/2000/svg" viewBox="0 0 38 24.38"><defs><style>.cls-1{fill:none;}.cls-2{fill:#212121;}.cls-3{fill:#ff6f00;}.cls-4,.cls-5{fill:#ff6d00;}.cls-5{stroke:#ff6d00;stroke-miterlimit:10;stroke-width:0.75px;}.cls-6{fill:#9e9e9e;}.cls-7{fill:#ffea00;}</style></defs><title>CUparkit_Logo</title><path id="Window_Fill" data-name="Window Fill" class="cls-1" d="M33,32a11.28,11.28,0,0,0,2.29-3,10.64,10.64,0,0,0,1.24-5c0-6.35-5.6-11.5-12.5-11.5S11.5,17.65,11.5,24a10.64,10.64,0,0,0,1.24,5A11.28,11.28,0,0,0,15,32" transform="translate(-5 -11.63)"/><g id="Tires"><rect class="cls-2" x="3" y="15.38" width="4" height="9" rx="1.32"/><rect class="cls-2" x="31" y="15.38" width="4" height="9" rx="1.32"/></g><g id="Body"><path class="cls-3" d="M42,27.5v1A2.47,2.47,0,0,1,42,29a3.43,3.43,0,0,1-2,2.61,3.28,3.28,0,0,1-1.5.35H9.5A3.28,3.28,0,0,1,8,31.65,3.43,3.43,0,0,1,6.05,29a2.47,2.47,0,0,1,0-.54v-1A3.5,3.5,0,0,1,9.5,24h29A3.5,3.5,0,0,1,42,27.5Z" transform="translate(-5 -11.63)"/></g><path class="cls-1" d="M36,24c0-6.07-5.38-11-12-11S12,17.93,12,24a10.15,10.15,0,0,0,1.18,4.77c0,.08.09.15.14.23H34.68c0-.08.1-.15.14-.23A10.15,10.15,0,0,0,36,24Z" transform="translate(-5 -11.63)"/><line class="cls-4" x1="28.67" y1="20.38" x2="27.97" y2="20.38"/><path id="Canopy" class="cls-5" d="M13.18,28.77A10.15,10.15,0,0,1,12,24c0-6.07,5.38-11,12-11s12,4.93,12,11a10.15,10.15,0,0,1-1.18,4.77c0,.08-.09.15-.14.23h1.13A11.09,11.09,0,0,0,37,24c0-6.62-5.83-12-13-12S11,17.38,11,24a11.09,11.09,0,0,0,1.19,5h1.13C13.27,28.92,13.22,28.85,13.18,28.77Z" transform="translate(-5 -11.63)"/><line class="cls-4" x1="10.03" y1="20.38" x2="9.33" y2="20.38"/><path class="cls-6" d="M42,29.05h0a.92.92,0,0,0-.29,0H35.81c0,.08-.07.16-.11.23a11.69,11.69,0,0,1-2,2.77h8a.32.32,0,0,0,.14,0A1.32,1.32,0,0,0,43,30.66v-.32A1.33,1.33,0,0,0,42,29.05Z" transform="translate(-5 -11.63)"/><path class="cls-6" d="M34.68,29H13.32a10.61,10.61,0,0,0,2,2.63L15,32H33l-.34-.37A10.61,10.61,0,0,0,34.68,29Z" transform="translate(-5 -11.63)"/><path class="cls-6" d="M12.19,29H6.34a.92.92,0,0,0-.29,0H6a1.33,1.33,0,0,0-1,1.29v.32A1.32,1.32,0,0,0,6.2,32a.32.32,0,0,0,.14,0h8a11.62,11.62,0,0,1-2-2.77C12.26,29.16,12.23,29.08,12.19,29Z" transform="translate(-5 -11.63)"/><path class="cls-6" d="M35.81,29H34.68a10.61,10.61,0,0,1-2,2.63L33,32h.7a11.69,11.69,0,0,0,2-2.77C35.74,29.16,35.77,29.08,35.81,29Z" transform="translate(-5 -11.63)"/><path class="cls-6" d="M13.32,29H12.19c0,.08.07.16.11.23a11.62,11.62,0,0,0,2,2.77H15l.34-.37A10.61,10.61,0,0,1,13.32,29Z" transform="translate(-5 -11.63)"/><circle class="cls-7" cx="6.5" cy="14.88" r="1.5"/><circle class="cls-7" cx="31.56" cy="14.9" r="1.5"/><rect class="cls-6" y="17.38" width="38" height="3" rx="1.26"/></svg>